<svg width="78" height="21" viewBox="0 0 78 21" fill="none" xmlns="http://www.w3.org/2000/svg">
<path fill-rule="evenodd" clip-rule="evenodd" d="M76.7282 19.9221C76.8634 19.9013 76.9919 19.8815 77.1172 19.8634C77.6372 19.7991 77.8102 19.6387 77.8102 19.1894V17.1361C77.8102 16.7832 77.4987 16.4945 77.1172 16.4945H70.0473C68.0371 16.4945 67.3094 15.8526 67.3094 13.7351L67.311 11.8604H76.7032C77.0841 11.8604 77.3962 11.5717 77.3962 11.2188V8.90874C77.3962 8.55582 77.0841 8.26687 76.7032 8.26687H67.311V6.98403C67.311 4.86649 68.0391 4.22462 70.0493 4.22462H77.1191C77.5 4.22462 77.8121 3.93597 77.8121 3.58305V1.52949C77.8121 1.08045 77.6389 0.920054 77.1191 0.855778C76.9941 0.837692 76.8659 0.817976 76.7311 0.797226C75.6701 0.63396 74.1935 0.406738 70.5343 0.406738C66.0288 0.406738 62.5285 1.52949 62.5285 6.98403L62.5269 13.7351C62.5269 19.1894 66.0269 20.3127 70.5324 20.3127C74.1905 20.3127 75.6673 20.0854 76.7282 19.9221ZM32.3819 19.688L36 1.68681V1.55552C36 1.29263 35.8148 1.06258 35.4807 1.06258H35.11C34.7389 1.06258 34.4426 1.35828 34.3681 1.68681L30.75 19.688V19.8196C30.75 20.0825 30.9355 20.3126 31.2693 20.3126H31.64C32.0111 20.3126 32.3078 20.0169 32.3819 19.688ZM27.75 1.61454L24.882 17.6826C24.5662 19.7281 23.548 20.3126 21.7223 20.3126H19.8266C18.2468 20.3126 17.4044 19.5983 16.9128 17.7151L14.1392 9.63801C14.1323 9.6093 14.1261 9.58279 14.1204 9.55831C14.0675 9.33347 14.0551 9.28057 13.9286 9.28057C13.7882 9.28057 13.7534 9.34561 13.6831 9.63801L10.9092 17.7151C10.4178 19.5983 9.5755 20.3126 7.99532 20.3126H6.09995C4.27394 20.3126 3.25576 19.7281 2.93992 17.6826L0 1.61454V1.51727C0 1.22488 0.281 1.06258 0.596841 1.06258H4.31822C4.5989 1.06258 4.8799 1.28992 4.91474 1.64706L7.08264 15.8969C7.08727 15.9354 7.0913 15.9722 7.09511 16.0071C7.12024 16.2369 7.1363 16.3838 7.25814 16.3838C7.36766 16.3838 7.39171 16.2652 7.43042 16.0742C7.44131 16.0205 7.45336 15.961 7.46881 15.8969L10.4879 7.13777C10.6988 6.35876 11.1902 5.67701 12.6997 5.67701H15.1226C16.6318 5.67701 17.1231 6.35876 17.3341 7.13777L20.3531 15.8969C20.3686 15.9609 20.3806 16.0203 20.3915 16.074C20.4302 16.2651 20.4543 16.3838 20.5641 16.3838C20.6855 16.3838 20.7017 16.2373 20.727 16.008L20.727 16.0077C20.7309 15.9726 20.7349 15.9356 20.7396 15.8969L22.8346 1.64706C22.8704 1.28992 23.1511 1.06258 23.4314 1.06258H27.1532C27.4693 1.06258 27.75 1.22488 27.75 1.51727V1.61454ZM56.8601 1.06258H57.2709C57.613 1.06258 57.75 1.29293 57.75 1.55551V1.6871L54.6476 18.6703C54.4438 19.7136 53.7007 20.3032 52.8534 20.3126V20.3117C52.8468 20.3117 52.8402 20.3126 52.834 20.3126C52.8329 20.3126 52.832 20.3125 52.831 20.3124C52.83 20.3124 52.829 20.3123 52.8277 20.3123C51.9764 20.3114 51.5327 20.0804 51.2596 19.2611L45.6728 2.67297C45.6415 2.55192 45.5226 2.46248 45.3975 2.44833V2.44321C45.3928 2.44281 45.3881 2.44172 45.3833 2.44062C45.3772 2.43921 45.3711 2.43779 45.3649 2.43779C45.358 2.43779 45.3505 2.44007 45.3429 2.44238C45.3395 2.44342 45.336 2.44447 45.3326 2.44532V2.43869C45.2674 2.45556 45.1887 2.5209 45.1595 2.66122L42.0054 19.6881C41.9371 20.0166 41.6633 20.3123 41.3209 20.3123H40.9785C40.6709 20.3123 40.5 20.0822 40.5 19.8196V19.6881L43.6538 2.66122C43.8714 1.55762 44.6525 1.13183 45.3326 1.06258V1.0692C45.3403 1.06844 45.3481 1.06756 45.3559 1.06667C45.3698 1.06511 45.3837 1.06354 45.3975 1.06258V1.06769C45.4442 1.06438 45.4907 1.06258 45.5361 1.06258C46.4254 1.06258 46.8703 1.52269 47.0757 2.08126L52.6628 18.7022C52.6926 18.8175 52.728 18.9021 52.8277 18.9223C52.8317 18.923 52.8351 18.9242 52.8386 18.9255C52.8432 18.9272 52.8478 18.9289 52.8534 18.9292V18.9298C52.8557 18.9301 52.8577 18.9308 52.8597 18.9314C52.8622 18.9323 52.8648 18.9331 52.8681 18.9331C52.902 18.9331 53.0732 18.8016 53.1077 18.6703L56.2101 1.6871C56.2785 1.35828 56.5183 1.06258 56.8601 1.06258Z" fill="#1D1D1B"/>
</svg>
